<svg width="270" height="108" fill="none" xmlns="http://www.w3.org/2000/svg"><path fill-rule="evenodd" clip-rule="evenodd" d="M254.176 67h-1.067c-.53-1.421-1.084-2.83-1.664-4.227a1 1 0 01.537-1.306l.056.13.139.331.127.304.065.158a126.43 126.43 0 011.807 4.61zM16.903 67h-1.067a126.06 126.06 0 012.193-5.533 1 1 0 01.538 1.306A125.065 125.065 0 0016.903 67zM71 1.288v1.16c-1.62.957-3.216 1.95-4.787 2.976a1 1 0 01-1.382-.288 124.164 124.164 0 01.835-.55A127.131 127.131 0 0171 1.288zm-50.08 56.16a1 1 0 01-1.326.482 124.32 124.32 0 01.422-.907 126.438 126.438 0 013.09-6.133 1 1 0 01.413 1.35 125.622 125.622 0 00-2.598 5.209zm5.437-10.291a1 1 0 01-1.366.356 131.582 131.582 0 01.504-.864 126.983 126.983 0 013.644-5.82 1 1 0 01.287 1.381 126.022 126.022 0 00-3.07 4.947zm6.363-9.746a1 1 0 01-1.393.228 125.732 125.732 0 01.582-.813 127.45 127.45 0 014.163-5.46 1 1 0 01.16 1.402 126.55 126.55 0 00-3.512 4.642zm7.233-9.12a1 1 0 01-1.408.1 130.254 130.254 0 01.654-.757 127.817 127.817 0 014.647-5.055 1 1 0 01.03 1.411 126.719 126.719 0 00-3.923 4.301zm8.04-8.417a1 1 0 01-1.412-.03 117.9 117.9 0 01.72-.694 127.607 127.607 0 015.092-4.607 1 1 0 01-.1 1.408 126.818 126.818 0 00-4.3 3.923zm8.777-7.645a1 1 0 01-1.403-.159 130.14 130.14 0 01.782-.624 127.463 127.463 0 015.493-4.121 1 1 0 01-.23 1.393 126.467 126.467 0 00-4.642 3.511zm142.083-9.875a1 1 0 01-.356-1.365 176.027 176.027 0 01.863.504 126.416 126.416 0 015.821 3.643 1 1 0 01-1.382.288 125.807 125.807 0 00-4.946-3.07zm9.746 6.364a1 1 0 01-.229-1.393l.408.29.406.291a126.748 126.748 0 014.679 3.54l.253.2.139.111.39.313a1 1 0 01-1.403.16 127.068 127.068 0 00-4.643-3.512zm9.12 7.232a1 1 0 01-.1-1.407l.379.326.377.327a126.862 126.862 0 015.056 4.648 1 1 0 01-1.411.03 128.378 128.378 0 00-4.301-3.923zm8.417 8.04a1 1 0 01.03-1.411 78.01 78.01 0 01.603.626l.09.094a127.607 127.607 0 014.608 5.092 1 1 0 01-1.408-.1 127.041 127.041 0 00-3.923-4.301zm7.644 8.778a1 1 0 01.159-1.403l.313.39.312.391a126.766 126.766 0 013.831 5.086l.29.407a1 1 0 01-1.393-.229 125.222 125.222 0 00-3.512-4.642zm6.806 9.442a1 1 0 01.287-1.382l.276.417.274.419a126.64 126.64 0 013.094 4.985l.146.25.107.181.251.433a1 1 0 01-1.366-.356 125.991 125.991 0 00-3.069-4.947zm5.906 10.03a1 1 0 01.414-1.35 77.826 77.826 0 01.471.883 127.053 127.053 0 013.041 6.157 1 1 0 01-1.327-.481 125.378 125.378 0 00-2.599-5.21z" fill="#FFB70A"/></svg>